<?xml version="1.0" encoding="utf-8"?>
<!-- Generator: Adobe Illustrator 26.0.3, SVG Export Plug-In . SVG Version: 6.00 Build 0)  -->
<svg version="1.1" id="Layer_1" xmlns="http://www.w3.org/2000/svg" xmlns:xlink="http://www.w3.org/1999/xlink" x="0px" y="0px"
	 viewBox="0 0 364 191" style="enable-background:new 0 0 364 191;" xml:space="preserve">
<style type="text/css">
	.st0{fill:none;filter:url(#Adobe_OpacityMaskFilter);}
	.st1{fill:#F2F5F9;}
	.st2{mask:url(#mask0_265_96_00000158744026354227994120000009220955224030993542_);}
	.st3{fill:#E4EAF1;}
	.st4{fill:#FFFFFF;}
</style>
<defs>
	<filter id="Adobe_OpacityMaskFilter" filterUnits="userSpaceOnUse" x="-82" y="-169" width="534" height="396">
		<feColorMatrix  type="matrix" values="1 0 0 0 0  0 1 0 0 0  0 0 1 0 0  0 0 0 1 0"/>
	</filter>
</defs>
<mask maskUnits="userSpaceOnUse" x="-82" y="-169" width="534" height="396" id="mask0_265_96_00000158744026354227994120000009220955224030993542_">
	<path class="st0" d="M0,10C0,4.5,4.5,0,10,0h344c5.5,0,10,4.5,10,10v181H0V10z"/>
	<path class="st1" d="M0,10C0,4.5,4.5,0,10,0h344c5.5,0,10,4.5,10,10v181H0V10z"/>
</mask>
<g class="st2">
	<rect x="-13" y="-9" class="st1" width="434" height="213"/>
	<circle class="st3" cx="288.5" cy="63.5" r="163.5"/>
	<circle class="st4" cx="81.5" cy="-5.5" r="163.5"/>
</g>
<path class="st3" d="M75,59.8c-7.3,0-14.5,3.1-19.9,9.2V39H44.2v50.4c0,0,0,0,0,0c0,16.4,13.4,29.6,30,29.6c16.6,0,30-13.3,30-29.6
	C104.2,73,91.6,59.8,75,59.8z M74.2,107.6c-10.2,0-18.4-8.2-18.4-18.2c0-10.1,8.3-18.2,18.4-18.2c10.2,0,18.4,8.2,18.4,18.2
	C92.6,99.4,84.4,107.6,74.2,107.6z"/>
<path class="st3" d="M37.2,105c-3.9,0-7,3.1-7,7c0,3.9,3.1,7,7,7s7-3.1,7-7C44.2,108.1,41.1,105,37.2,105z"/>
</svg>
